# https://github.com/mikedh/trimesh
mtllib material.mtl
usemtl material_0
v 0.31417903 0.10208306 -0.01555287
v 0.26725707 0.19417285 -0.01555287
v 0.00000000 0.00000000 -0.07907390
v 0.19417285 0.26725707 -0.01555287
v 0.10208306 0.31417903 -0.01555287
v 0.00000000 0.33034641 -0.01555287
v -0.10208306 0.31417903 -0.01555287
v -0.19417285 0.26725546 -0.01555287
v -0.26725707 0.19417285 -0.01555287
v -0.31417903 0.10208145 -0.01555287
v -0.33034641 0.00000000 -0.01555287
v -0.31417903 -0.10208306 -0.01555287
v -0.26725707 -0.19417446 -0.01555287
v -0.19417285 -0.26725707 -0.01555287
v -0.10208306 -0.31417903 -0.01555287
v 0.00000000 -0.33034641 -0.01555287
v 0.10208306 -0.31417903 -0.01555287
v 0.19417285 -0.26725707 -0.01555287
v 0.26725707 -0.19417446 -0.01555287
v 0.31417903 -0.10208306 -0.01555287
v 0.33034641 0.00000000 -0.01555287
v 0.39177827 0.12729657 0.09450193
v 0.33326675 0.24213215 0.09450193
v 0.24213215 0.33326675 0.09450193
v 0.12729657 0.39177666 0.09450193
v 0.00000000 0.41193876 0.09450193
v -0.12729657 0.39177666 0.09450193
v -0.24213215 0.33326675 0.09450193
v -0.33326675 0.24213215 0.09450193
v -0.39177827 0.12729657 0.09450193
v -0.41193876 0.00000000 0.09450193
v -0.39177827 -0.12729657 0.09450193
v -0.33326675 -0.24213215 0.09450193
v -0.24213215 -0.33326675 0.09450193
v -0.12729657 -0.39177827 0.09450193
v 0.00000000 -0.41194038 0.09450193
v 0.12729657 -0.39177827 0.09450193
v 0.24213215 -0.33326675 0.09450193
v 0.33326675 -0.24213215 0.09450193
v 0.39177827 -0.12729657 0.09450193
v 0.41193876 0.00000000 0.09450193
v 0.43056580 0.13989768 0.19385150
v 0.36626032 0.26610375 0.19385150
v 0.33326675 0.24213215 0.09450193
v 0.39177827 0.12729657 0.09450193
v 0.26610375 0.36626032 0.19385150
v 0.24213215 0.33326675 0.09450193
v 0.13989929 0.43056419 0.19385150
v 0.12729657 0.39177666 0.09450193
v 0.00000000 0.45272205 0.19385150
v 0.00000000 0.41193876 0.09450193
v 0.00000000 0.45272205 0.19385150
v -0.13989929 0.43056419 0.19385150
v -0.12729657 0.39177666 0.09450193
v 0.00000000 0.41193876 0.09450193
v -0.26610375 0.36626032 0.19385150
v -0.24213215 0.33326675 0.09450193
v -0.36626032 0.26610375 0.19385150
v -0.33326675 0.24213215 0.09450193
v -0.43056580 0.13989768 0.19385150
v -0.39177827 0.12729657 0.09450193
v -0.45272205 0.00000000 0.19385150
v -0.41193876 0.00000000 0.09450193
v -0.43056580 -0.13989929 0.19385150
v -0.39177827 -0.12729657 0.09450193
v -0.36626032 -0.26610375 0.19385150
v -0.33326675 -0.24213215 0.09450193
v -0.26610375 -0.36626032 0.19385150
v -0.24213215 -0.33326675 0.09450193
v -0.13989929 -0.43056580 0.19385150
v -0.12729657 -0.39177827 0.09450193
v 0.00000000 -0.45272366 0.19385150
v 0.00000000 -0.41194038 0.09450193
v 0.13989929 -0.43056580 0.19385150
v 0.12729657 -0.39177827 0.09450193
v 0.26610375 -0.36626032 0.19385150
v 0.24213215 -0.33326675 0.09450193
v 0.36626032 -0.26610375 0.19385150
v 0.33326675 -0.24213215 0.09450193
v 0.43056419 -0.13989929 0.19385150
v 0.39177827 -0.12729657 0.09450193
v 0.45272205 0.00000000 0.19385150
v 0.41193876 0.00000000 0.09450193
vn -0.51140767 -0.16620249 0.84311264
vn -0.43508938 -0.31609228 0.84307942
vn 0.00000000 0.00000000 1.00000000
vn -0.31609228 -0.43508938 0.84307942
vn -0.16620249 -0.51140767 0.84311264
vn 0.00000000 -0.53778751 0.84308042
vn 0.16620249 -0.51140767 0.84311264
vn 0.31609228 -0.43508938 0.84307942
vn 0.43508938 -0.31609228 0.84307942
vn 0.51140767 -0.16620249 0.84311264
vn 0.53778751 0.00000000 0.84308042
vn 0.51140767 0.16620249 0.84311264
vn 0.43508938 0.31609228 0.84307942
vn 0.31609228 0.43508938 0.84307942
vn 0.16620249 0.51140767 0.84311264
vn 0.00000000 0.53778751 0.84308042
vn -0.16620249 0.51140767 0.84311264
vn -0.31609228 0.43508938 0.84307942
vn -0.43508938 0.31609228 0.84307942
vn -0.51140767 0.16620249 0.84311264
vn -0.53778751 0.00000000 0.84308042
vn -0.83021124 -0.26980365 0.48780660
vn -0.70627170 -0.51307944 0.48778046
vn -0.51311568 -0.70622158 0.48781491
vn -0.26980365 -0.83021124 0.48780660
vn 0.00000000 -0.87296602 0.48778102
vn 0.26980365 -0.83021124 0.48780660
vn 0.51311568 -0.70622158 0.48781491
vn 0.70622158 -0.51311568 0.48781491
vn 0.83021124 -0.26980365 0.48780660
vn 0.87296602 0.00000000 0.48778102
vn 0.83021124 0.26980365 0.48780660
vn 0.70622158 0.51311568 0.48781491
vn 0.51307944 0.70627170 0.48778046
vn 0.26980365 0.83021124 0.48780660
vn 0.00000000 0.87296602 0.48778102
vn -0.26980365 0.83021124 0.48780660
vn -0.51311568 0.70622158 0.48781491
vn -0.70622158 0.51311568 0.48781491
vn -0.83021124 0.26980365 0.48780660
vn -0.87296602 0.00000000 0.48778102
vn -0.87981806 -0.28590587 0.37970780
vn -0.74837417 -0.54378123 0.37978689
vn -0.70269406 -0.51049569 0.49559581
vn -0.82605906 -0.26838670 0.49557544
vn -0.54378123 -0.74837417 0.37978689
vn -0.51049569 -0.70269406 0.49559581
vn -0.28589501 -0.87978465 0.37979337
vn -0.26838670 -0.82605906 0.49557544
vn -0.00159994 -0.92486733 0.38028656
vn -0.00190006 -0.86842614 0.49581492
vn 0.00159994 -0.92486733 0.38028656
vn 0.28589501 -0.87978465 0.37979337
vn 0.26838670 -0.82605906 0.49557544
vn 0.00190006 -0.86842614 0.49581492
vn 0.54378123 -0.74837417 0.37978689
vn 0.51049569 -0.70269406 0.49559581
vn 0.74837417 -0.54378123 0.37978689
vn 0.70269406 -0.51049569 0.49559581
vn 0.87978465 -0.28589501 0.37979337
vn 0.82602729 -0.26840887 0.49561638
vn 0.92507315 0.00000000 0.37978898
vn 0.86860599 0.00000000 0.49550342
vn 0.87978465 0.28589501 0.37979337
vn 0.82605906 0.26838670 0.49557544
vn 0.74837417 0.54378123 0.37978689
vn 0.70269406 0.51049569 0.49559581
vn 0.54380188 0.74840259 0.37970131
vn 0.51049569 0.70269406 0.49559581
vn 0.28589501 0.87978465 0.37979337
vn 0.26838670 0.82605906 0.49557544
vn 0.00000000 0.92507315 0.37978898
vn 0.00000000 0.86856295 0.49557886
vn -0.28589501 0.87978465 0.37979337
vn -0.26838670 0.82605906 0.49557544
vn -0.54380188 0.74840259 0.37970131
vn -0.51049569 0.70269406 0.49559581
vn -0.74837417 0.54378123 0.37978689
vn -0.70269406 0.51049569 0.49559581
vn -0.87978465 0.28589501 0.37979337
vn -0.82605906 0.26838670 0.49557544
vn -0.92507315 0.00000000 0.37978898
vn -0.86860599 0.00000000 0.49550342
vt 0.32662700 0.22787500
vt 0.30776300 0.19085000
vt 0.20031500 0.26891600
vt 0.27838000 0.16146800
vt 0.24135600 0.14260300
vt 0.20031500 0.13610300
vt 0.15927300 0.14260300
vt 0.12224900 0.16146800
vt 0.09286700 0.19085000
vt 0.07400200 0.22787500
vt 0.06750200 0.26891600
vt 0.07400200 0.30995800
vt 0.09286700 0.34698200
vt 0.12224900 0.37636400
vt 0.15927300 0.39522900
vt 0.20031500 0.40172900
vt 0.24135600 0.39522900
vt 0.27838000 0.37636400
vt 0.30776300 0.34698200
vt 0.32662700 0.30995800
vt 0.33312700 0.26891600
vt 0.38618200 0.20852400
vt 0.35842300 0.15404400
vt 0.31518700 0.11080800
vt 0.26070700 0.08304900
vt 0.20031500 0.07348400
vt 0.13992300 0.08304900
vt 0.08544300 0.11080800
vt 0.04220700 0.15404400
vt 0.01444800 0.20852400
vt 0.00488300 0.26891600
vt 0.01444800 0.32930800
vt 0.04220700 0.38378800
vt 0.08544300 0.42702400
vt 0.13992300 0.45478300
vt 0.20031500 0.46434800
vt 0.26070700 0.45478300
vt 0.31518700 0.42702400
vt 0.35842300 0.38378800
vt 0.38618100 0.32930800
vt 0.39574700 0.26891600
vt 0.17470500 0.01008100
vt 0.13224900 0.01008100
vt 0.13224900 0.06957100
vt 0.17470400 0.06957100
vt 0.08979400 0.01008100
vt 0.08979400 0.06957100
vt 0.04733800 0.01008100
vt 0.04733800 0.06957100
vt 0.00488300 0.01008100
vt 0.00488300 0.06957100
vt 0.85399100 0.01008100
vt 0.81153600 0.01008100
vt 0.81153600 0.06957100
vt 0.85399100 0.06957100
vt 0.76908100 0.01008100
vt 0.76908100 0.06957100
vt 0.72662500 0.01008100
vt 0.72662500 0.06957100
vt 0.68417000 0.01008100
vt 0.68417000 0.06957100
vt 0.64171400 0.01008100
vt 0.64171400 0.06957100
vt 0.59925900 0.01008100
vt 0.59925900 0.06957100
vt 0.55680300 0.01008100
vt 0.55680300 0.06957100
vt 0.51434800 0.01008100
vt 0.51434800 0.06957100
vt 0.47189200 0.01008100
vt 0.47189200 0.06957100
vt 0.42943700 0.01008100
vt 0.42943700 0.06957100
vt 0.38698200 0.01008100
vt 0.38698200 0.06957100
vt 0.34452600 0.01008100
vt 0.34452600 0.06957100
vt 0.30207100 0.01008100
vt 0.30207100 0.06957100
vt 0.25961500 0.01008100
vt 0.25961500 0.06957100
vt 0.21716000 0.01008100
vt 0.21716000 0.06957100
f 1/1/1 2/2/2 3/3/3
f 2/2/2 4/4/4 3/3/3
f 4/4/4 5/5/5 3/3/3
f 5/5/5 6/6/6 3/3/3
f 6/6/6 7/7/7 3/3/3
f 7/7/7 8/8/8 3/3/3
f 8/8/8 9/9/9 3/3/3
f 9/9/9 10/10/10 3/3/3
f 10/10/10 11/11/11 3/3/3
f 11/11/11 12/12/12 3/3/3
f 12/12/12 13/13/13 3/3/3
f 13/13/13 14/14/14 3/3/3
f 14/14/14 15/15/15 3/3/3
f 15/15/15 16/16/16 3/3/3
f 16/16/16 17/17/17 3/3/3
f 17/17/17 18/18/18 3/3/3
f 18/18/18 19/19/19 3/3/3
f 19/19/19 20/20/20 3/3/3
f 20/20/20 21/21/21 3/3/3
f 21/21/21 1/1/1 3/3/3
f 22/22/22 23/23/23 2/2/2
f 22/22/22 2/2/2 1/1/1
f 23/23/23 24/24/24 4/4/4
f 23/23/23 4/4/4 2/2/2
f 24/24/24 25/25/25 5/5/5
f 24/24/24 5/5/5 4/4/4
f 25/25/25 26/26/26 6/6/6
f 25/25/25 6/6/6 5/5/5
f 26/26/26 27/27/27 7/7/7
f 26/26/26 7/7/7 6/6/6
f 27/27/27 28/28/28 8/8/8
f 27/27/27 8/8/8 7/7/7
f 28/28/28 29/29/29 9/9/9
f 28/28/28 9/9/9 8/8/8
f 29/29/29 30/30/30 10/10/10
f 29/29/29 10/10/10 9/9/9
f 30/30/30 31/31/31 11/11/11
f 30/30/30 11/11/11 10/10/10
f 31/31/31 32/32/32 12/12/12
f 31/31/31 12/12/12 11/11/11
f 32/32/32 33/33/33 13/13/13
f 32/32/32 13/13/13 12/12/12
f 33/33/33 34/34/34 14/14/14
f 33/33/33 14/14/14 13/13/13
f 34/34/34 35/35/35 15/15/15
f 34/34/34 15/15/15 14/14/14
f 35/35/35 36/36/36 16/16/16
f 35/35/35 16/16/16 15/15/15
f 36/36/36 37/37/37 17/17/17
f 36/36/36 17/17/17 16/16/16
f 37/37/37 38/38/38 18/18/18
f 37/37/37 18/18/18 17/17/17
f 38/38/38 39/39/39 19/19/19
f 38/38/38 19/19/19 18/18/18
f 39/39/39 40/40/40 20/20/20
f 39/39/39 20/20/20 19/19/19
f 40/40/40 41/41/41 21/21/21
f 40/40/40 21/21/21 20/20/20
f 41/41/41 22/22/22 1/1/1
f 41/41/41 1/1/1 21/21/21
f 42/42/42 43/43/43 44/44/44
f 42/42/42 44/44/44 45/45/45
f 43/43/43 46/46/46 47/47/47
f 43/43/43 47/47/47 44/44/44
f 46/46/46 48/48/48 49/49/49
f 46/46/46 49/49/49 47/47/47
f 48/48/48 50/50/50 51/51/51
f 48/48/48 51/51/51 49/49/49
f 52/52/52 53/53/53 54/54/54
f 52/52/52 54/54/54 55/55/55
f 53/53/53 56/56/56 57/57/57
f 53/53/53 57/57/57 54/54/54
f 56/56/56 58/58/58 59/59/59
f 56/56/56 59/59/59 57/57/57
f 58/58/58 60/60/60 61/61/61
f 58/58/58 61/61/61 59/59/59
f 60/60/60 62/62/62 63/63/63
f 60/60/60 63/63/63 61/61/61
f 62/62/62 64/64/64 65/65/65
f 62/62/62 65/65/65 63/63/63
f 64/64/64 66/66/66 67/67/67
f 64/64/64 67/67/67 65/65/65
f 66/66/66 68/68/68 69/69/69
f 66/66/66 69/69/69 67/67/67
f 68/68/68 70/70/70 71/71/71
f 68/68/68 71/71/71 69/69/69
f 70/70/70 72/72/72 73/73/73
f 70/70/70 73/73/73 71/71/71
f 72/72/72 74/74/74 75/75/75
f 72/72/72 75/75/75 73/73/73
f 74/74/74 76/76/76 77/77/77
f 74/74/74 77/77/77 75/75/75
f 76/76/76 78/78/78 79/79/79
f 76/76/76 79/79/79 77/77/77
f 78/78/78 80/80/80 81/81/81
f 78/78/78 81/81/81 79/79/79
f 80/80/80 82/82/82 83/83/83
f 80/80/80 83/83/83 81/81/81
f 82/82/82 42/42/42 45/45/45
f 82/82/82 45/45/45 83/83/83