# https://github.com/mikedh/trimesh
mtllib material.mtl
usemtl material_0
v 0.37968331 0.12336669 0.05393847
v 0.32297834 0.23465713 0.05393847
v 0.39875030 0.28970911 0.16678942
v 0.46875927 0.15230867 0.16678942
v 0.23465738 0.32297809 0.05393847
v 0.28970936 0.39875055 0.16678942
v 0.12336644 0.37968306 0.05393847
v 0.15230892 0.46875902 0.16678942
v 0.00000000 0.39922305 0.05393847
v 0.00000000 0.49288250 0.16678942
v 0.00000000 0.39922305 0.05393847
v -0.12336644 0.37968306 0.05393847
v -0.15230892 0.46875902 0.16678942
v 0.00000000 0.49288250 0.16678942
v -0.23465738 0.32297809 0.05393847
v -0.28970936 0.39875005 0.16678942
v -0.32297784 0.23465713 0.05393847
v -0.39875030 0.28970911 0.16678942
v -0.37968381 0.12336669 0.05393847
v -0.46875927 0.15230867 0.16678942
v -0.39922280 -0.00000025 0.05393847
v -0.49288275 -0.00000025 0.16678942
v -0.37968381 -0.12336669 0.05393847
v -0.46875927 -0.15230917 0.16678942
v -0.32297784 -0.23465763 0.05393847
v -0.39875030 -0.28970911 0.16678942
v -0.23465738 -0.32297859 0.05393847
v -0.28970886 -0.39875055 0.16678942
v -0.12336644 -0.37968356 0.05393847
v -0.15230892 -0.46875952 0.16678942
v 0.00000000 -0.39922305 0.05393847
v 0.00000000 -0.49288300 0.16678942
v 0.12336644 -0.37968356 0.05393847
v 0.15230892 -0.46875952 0.16678942
v 0.23465688 -0.32297859 0.05393847
v 0.28970886 -0.39875055 0.16678942
v 0.32297784 -0.23465763 0.05393847
v 0.39875030 -0.28970911 0.16678942
v 0.37968331 -0.12336669 0.05393847
v 0.46875877 -0.15230917 0.16678942
v 0.39922280 -0.00000025 0.05393847
v 0.49288225 -0.00000025 0.16678942
v -0.26015287 -0.35807007 0.16699642
v -0.13677043 -0.42093654 0.16699642
v -0.10757795 -0.33109158 0.05036497
v -0.20462590 -0.28164361 0.05036497
v -0.35806982 -0.26015312 0.16699642
v -0.28164336 -0.20462615 0.05036497
v -0.42093629 -0.13677068 0.16699642
v -0.33109133 -0.10757820 0.05036497
v -0.44259828 -0.00000025 0.16699642
v -0.34813033 -0.00000025 0.05036497
v -0.42093629 0.13677018 0.16699642
v -0.33109133 0.10757770 0.05036497
v -0.35806982 0.26015262 0.16699642
v -0.28164336 0.20462565 0.05036497
v -0.26015287 0.35806957 0.16699642
v -0.20462590 0.28164311 0.05036497
v -0.13677043 0.42093604 0.16699642
v -0.10757795 0.33109158 0.05036497
v 0.00000000 0.44259853 0.16699642
v 0.00000000 0.34813008 0.05036497
v 0.13677043 0.42093604 0.16699642
v 0.00000000 0.44259853 0.16699642
v 0.00000000 0.34813008 0.05036497
v 0.10757845 0.33109158 0.05036497
v 0.26015287 0.35806957 0.16699642
v 0.20462590 0.28164311 0.05036497
v 0.35806982 0.26015262 0.16699642
v 0.28164336 0.20462565 0.05036497
v 0.42093629 0.13677018 0.16699642
v 0.33109183 0.10757820 0.05036497
v 0.44259828 -0.00000025 0.16699642
v 0.34813033 -0.00000025 0.05036497
v 0.42093579 -0.13677068 0.16699642
v 0.33109133 -0.10757820 0.05036497
v 0.35806982 -0.26015312 0.16699642
v 0.28164336 -0.20462615 0.05036497
v 0.26015287 -0.35807007 0.16699642
v 0.20462590 -0.28164361 0.05036497
v 0.13677043 -0.42093654 0.16699642
v 0.10757795 -0.33109158 0.05036497
v 0.00000000 -0.44259853 0.16699642
v 0.00000000 -0.34813058 0.05036497
vn 0.68179955 0.22149985 -0.69719954
vn 0.57998092 0.42138614 -0.69717706
vn 0.62253377 0.45232454 -0.63863465
vn 0.73184024 0.23781308 -0.63863511
vn 0.42138614 0.57998092 -0.69717706
vn 0.45232454 0.62253377 -0.63863465
vn 0.22149985 0.68179955 -0.69719954
vn 0.23781308 0.73184024 -0.63863511
vn 0.00000000 0.71688801 -0.69718834
vn 0.00000000 0.76952301 -0.63861909
vn 0.00000000 0.71688801 -0.69718834
vn -0.22149985 0.68179955 -0.69719954
vn -0.23781308 0.73184024 -0.63863511
vn 0.00000000 0.76952301 -0.63861909
vn -0.42138614 0.57998092 -0.69717706
vn -0.45232454 0.62253377 -0.63863465
vn -0.57998092 0.42138614 -0.69717706
vn -0.62253377 0.45232454 -0.63863465
vn -0.68179955 0.22149985 -0.69719954
vn -0.73184024 0.23781308 -0.63863511
vn -0.71688801 0.00000000 -0.69718834
vn -0.76952301 0.00000000 -0.63861909
vn -0.68179955 -0.22149985 -0.69719954
vn -0.73184024 -0.23781308 -0.63863511
vn -0.57998092 -0.42138614 -0.69717706
vn -0.62253377 -0.45232454 -0.63863465
vn -0.42138614 -0.57998092 -0.69717706
vn -0.45232454 -0.62253377 -0.63863465
vn -0.22149985 -0.68179955 -0.69719954
vn -0.23781308 -0.73184024 -0.63863511
vn 0.00000000 -0.71688801 -0.69718834
vn 0.00000000 -0.76952301 -0.63861909
vn 0.22149985 -0.68179955 -0.69719954
vn 0.23781308 -0.73184024 -0.63863511
vn 0.42138614 -0.57998092 -0.69717706
vn 0.45232454 -0.62253377 -0.63863465
vn 0.57998092 -0.42138614 -0.69717706
vn 0.62253377 -0.45232454 -0.63863465
vn 0.68179955 -0.22149985 -0.69719954
vn 0.73184024 -0.23781308 -0.63863511
vn 0.71688801 0.00000000 -0.69718834
vn 0.76952301 0.00000000 -0.63861909
vn 0.45678303 0.62867665 0.62937662
vn 0.24011040 0.73903201 0.62942726
vn 0.22189911 0.68289726 0.69599721
vn 0.42201165 0.58091603 0.69601921
vn 0.62867665 0.45678303 0.62937662
vn 0.58091603 0.42201165 0.69601921
vn 0.73903201 0.24011040 0.62942726
vn 0.68289726 0.22189911 0.69599721
vn 0.77708882 0.00000000 0.62939095
vn 0.71802154 0.00000000 0.69602088
vn 0.73903201 -0.24011040 0.62942726
vn 0.68289726 -0.22189911 0.69599721
vn 0.62867665 -0.45678303 0.62937662
vn 0.58091603 -0.42201165 0.69601921
vn 0.45678303 -0.62867665 0.62937662
vn 0.42201165 -0.58091603 0.69601921
vn 0.24011040 -0.73903201 0.62942726
vn 0.22189911 -0.68289726 0.69599721
vn 0.00000000 -0.77708882 0.62939095
vn 0.00000000 -0.71802154 0.69602088
vn -0.24011040 -0.73903201 0.62942726
vn 0.00000000 -0.77708882 0.62939095
vn 0.00000000 -0.71802154 0.69602088
vn -0.22189911 -0.68289726 0.69599721
vn -0.45678303 -0.62867665 0.62937662
vn -0.42201165 -0.58091603 0.69601921
vn -0.62867665 -0.45678303 0.62937662
vn -0.58091603 -0.42201165 0.69601921
vn -0.73903201 -0.24011040 0.62942726
vn -0.68289726 -0.22189911 0.69599721
vn -0.77708882 0.00000000 0.62939095
vn -0.71802154 0.00000000 0.69602088
vn -0.73903201 0.24011040 0.62942726
vn -0.68289726 0.22189911 0.69599721
vn -0.62867665 0.45678303 0.62937662
vn -0.58091603 0.42201165 0.69601921
vn -0.45678303 0.62867665 0.62937662
vn -0.42201165 0.58091603 0.69601921
vn -0.24011040 0.73903201 0.62942726
vn -0.22189911 0.68289726 0.69599721
vn 0.00000000 0.77708882 0.62939095
vn 0.00000000 0.71802154 0.69602088
vt 0.80001600 0.40123500
vt 0.85001600 0.40123500
vt 0.85001600 0.34011800
vt 0.80001600 0.34011800
vt 0.90001600 0.40123500
vt 0.90001600 0.34011800
vt 0.95001600 0.40123500
vt 0.95001600 0.34011800
vt 1.00001600 0.40123500
vt 1.00001600 0.34011800
vt 0.00001600 0.40123500
vt 0.05001600 0.40123500
vt 0.05001600 0.34011800
vt 0.00001600 0.34011800
vt 0.10001600 0.40123500
vt 0.10001600 0.34011800
vt 0.15001600 0.40123500
vt 0.15001600 0.34011800
vt 0.20001600 0.40123500
vt 0.20001600 0.34011800
vt 0.25001600 0.40123500
vt 0.25001600 0.34011800
vt 0.30001600 0.40123500
vt 0.30001600 0.34011800
vt 0.35001600 0.40123500
vt 0.35001600 0.34011800
vt 0.40001600 0.40123500
vt 0.40001600 0.34011800
vt 0.45001600 0.40123500
vt 0.45001600 0.34011800
vt 0.50001600 0.40123500
vt 0.50001600 0.34011800
vt 0.55001600 0.40123500
vt 0.55001600 0.34011800
vt 0.60001600 0.40123500
vt 0.60001600 0.34011800
vt 0.65001600 0.40123500
vt 0.65001600 0.34011800
vt 0.70001600 0.40123500
vt 0.70001600 0.34011800
vt 0.75001600 0.40123500
vt 0.75001600 0.34011800
vt 0.40001600 0.32913800
vt 0.45001600 0.32913800
vt 0.45001600 0.39824900
vt 0.40001600 0.39824900
vt 0.35001600 0.32913800
vt 0.35001600 0.39824900
vt 0.30001600 0.32913800
vt 0.30001600 0.39824900
vt 0.25001600 0.32913800
vt 0.25001600 0.39824900
vt 0.20001600 0.32913800
vt 0.20001600 0.39824900
vt 0.15001600 0.32913800
vt 0.15001600 0.39824900
vt 0.10001600 0.32913800
vt 0.10001600 0.39824900
vt 0.05001600 0.32913800
vt 0.05001600 0.39824900
vt 0.00001600 0.32913800
vt 0.00001600 0.39824900
vt 0.95001600 0.32913800
vt 1.00001600 0.32913800
vt 1.00001600 0.39824900
vt 0.95001600 0.39824900
vt 0.90001600 0.32913800
vt 0.90001600 0.39824900
vt 0.85001600 0.32913800
vt 0.85001600 0.39824900
vt 0.80001600 0.32913800
vt 0.80001600 0.39824900
vt 0.75001600 0.32913800
vt 0.75001600 0.39824900
vt 0.70001600 0.32913800
vt 0.70001600 0.39824900
vt 0.65001600 0.32913800
vt 0.65001600 0.39824900
vt 0.60001600 0.32913800
vt 0.60001600 0.39824900
vt 0.55001600 0.32913800
vt 0.55001600 0.39824900
vt 0.50001600 0.32913800
vt 0.50001600 0.39824900
f 1/1/1 2/2/2 3/3/3
f 1/1/1 3/3/3 4/4/4
f 2/2/2 5/5/5 6/6/6
f 2/2/2 6/6/6 3/3/3
f 5/5/5 7/7/7 8/8/8
f 5/5/5 8/8/8 6/6/6
f 7/7/7 9/9/9 10/10/10
f 7/7/7 10/10/10 8/8/8
f 11/11/11 12/12/12 13/13/13
f 11/11/11 13/13/13 14/14/14
f 12/12/12 15/15/15 16/16/16
f 12/12/12 16/16/16 13/13/13
f 15/15/15 17/17/17 18/18/18
f 15/15/15 18/18/18 16/16/16
f 17/17/17 19/19/19 20/20/20
f 17/17/17 20/20/20 18/18/18
f 19/19/19 21/21/21 22/22/22
f 19/19/19 22/22/22 20/20/20
f 21/21/21 23/23/23 24/24/24
f 21/21/21 24/24/24 22/22/22
f 23/23/23 25/25/25 26/26/26
f 23/23/23 26/26/26 24/24/24
f 25/25/25 27/27/27 28/28/28
f 25/25/25 28/28/28 26/26/26
f 27/27/27 29/29/29 30/30/30
f 27/27/27 30/30/30 28/28/28
f 29/29/29 31/31/31 32/32/32
f 29/29/29 32/32/32 30/30/30
f 31/31/31 33/33/33 34/34/34
f 31/31/31 34/34/34 32/32/32
f 33/33/33 35/35/35 36/36/36
f 33/33/33 36/36/36 34/34/34
f 35/35/35 37/37/37 38/38/38
f 35/35/35 38/38/38 36/36/36
f 37/37/37 39/39/39 40/40/40
f 37/37/37 40/40/40 38/38/38
f 39/39/39 41/41/41 42/42/42
f 39/39/39 42/42/42 40/40/40
f 41/41/41 1/1/1 4/4/4
f 41/41/41 4/4/4 42/42/42
f 43/43/43 44/44/44 45/45/45
f 43/43/43 45/45/45 46/46/46
f 47/47/47 43/43/43 46/46/46
f 47/47/47 46/46/46 48/48/48
f 49/49/49 47/47/47 48/48/48
f 49/49/49 48/48/48 50/50/50
f 51/51/51 49/49/49 50/50/50
f 51/51/51 50/50/50 52/52/52
f 53/53/53 51/51/51 52/52/52
f 53/53/53 52/52/52 54/54/54
f 55/55/55 53/53/53 54/54/54
f 55/55/55 54/54/54 56/56/56
f 57/57/57 55/55/55 56/56/56
f 57/57/57 56/56/56 58/58/58
f 59/59/59 57/57/57 58/58/58
f 59/59/59 58/58/58 60/60/60
f 61/61/61 59/59/59 60/60/60
f 61/61/61 60/60/60 62/62/62
f 63/63/63 64/64/64 65/65/65
f 63/63/63 65/65/65 66/66/66
f 67/67/67 63/63/63 66/66/66
f 67/67/67 66/66/66 68/68/68
f 69/69/69 67/67/67 68/68/68
f 69/69/69 68/68/68 70/70/70
f 71/71/71 69/69/69 70/70/70
f 71/71/71 70/70/70 72/72/72
f 73/73/73 71/71/71 72/72/72
f 73/73/73 72/72/72 74/74/74
f 75/75/75 73/73/73 74/74/74
f 75/75/75 74/74/74 76/76/76
f 77/77/77 75/75/75 76/76/76
f 77/77/77 76/76/76 78/78/78
f 79/79/79 77/77/77 78/78/78
f 79/79/79 78/78/78 80/80/80
f 81/81/81 79/79/79 80/80/80
f 81/81/81 80/80/80 82/82/82
f 83/83/83 81/81/81 82/82/82
f 83/83/83 82/82/82 84/84/84
f 44/44/44 83/83/83 84/84/84
f 44/44/44 84/84/84 45/45/45