# https://github.com/mikedh/trimesh
mtllib material.mtl
usemtl material_0
v 0.47552826 0.15450817 0.17536491
v 0.40450880 0.29389260 0.17536491
v 0.40021380 0.29077210 0.17536491
v 0.47047926 0.15286767 0.17536491
v 0.29389285 0.40450855 0.17536491
v 0.29077235 0.40021355 0.17536491
v 0.15450842 0.47552801 0.17536491
v 0.15286792 0.47047951 0.17536491
v 0.00000000 0.50000000 0.17536491
v 0.00000000 0.49469100 0.17536491
v 0.00000000 0.50000000 0.17536491
v -0.15450842 0.47552801 0.17536491
v -0.15286792 0.47047901 0.17536491
v 0.00000000 0.49469100 0.17536491
v -0.29389235 0.40450805 0.17536491
v -0.29077235 0.40021355 0.17536491
v -0.40450830 0.29389260 0.17536491
v -0.40021380 0.29077210 0.17536491
v -0.47552826 0.15450817 0.17536491
v -0.47047926 0.15286767 0.17536491
v -0.49999975 -0.00000025 0.17536491
v -0.49469125 -0.00000025 0.17536491
v -0.47552826 -0.15450867 0.17536491
v -0.47047926 -0.15286817 0.17536491
v -0.40450830 -0.29389260 0.17536491
v -0.40021380 -0.29077260 0.17536491
v -0.29389235 -0.40450855 0.17536491
v -0.29077235 -0.40021405 0.17536491
v -0.15450842 -0.47552851 0.17536491
v -0.15286792 -0.47047951 0.17536491
v 0.00000000 -0.50000000 0.17536491
v 0.00000000 -0.49469150 0.17536491
v 0.15450842 -0.47552851 0.17536491
v 0.15286792 -0.47047951 0.17536491
v 0.29389235 -0.40450855 0.17536491
v 0.29077235 -0.40021405 0.17536491
v 0.40450830 -0.29389260 0.17536491
v 0.40021330 -0.29077260 0.17536491
v 0.47552826 -0.15450867 0.17536491
v 0.47047926 -0.15286817 0.17536491
v 0.49999975 -0.00000025 0.17536491
v 0.49469125 -0.00000025 0.17536491
v 0.42738279 0.13886468 0.17536491
v 0.36355332 0.26413712 0.17536491
v 0.35806982 0.26015262 0.16699642
v 0.42093629 0.13677018 0.16699642
v 0.26413687 0.36355357 0.17536491
v 0.26015287 0.35806957 0.16699642
v 0.13886493 0.42738254 0.17536491
v 0.13677043 0.42093604 0.16699642
v 0.00000000 0.44937653 0.17536491
v 0.00000000 0.44259853 0.16699642
v 0.00000000 0.44937653 0.17536491
v -0.13886493 0.42738254 0.17536491
v -0.13677043 0.42093604 0.16699642
v 0.00000000 0.44259853 0.16699642
v -0.26413687 0.36355307 0.17536491
v -0.26015287 0.35806957 0.16699642
v -0.36355332 0.26413662 0.17536491
v -0.35806982 0.26015262 0.16699642
v -0.42738279 0.13886468 0.17536491
v -0.42093629 0.13677018 0.16699642
v -0.44937678 -0.00000025 0.17536491
v -0.44259828 -0.00000025 0.16699642
v -0.42738279 -0.13886518 0.17536491
v -0.42093629 -0.13677068 0.16699642
v -0.36355332 -0.26413712 0.17536491
v -0.35806982 -0.26015312 0.16699642
v -0.26413687 -0.36355357 0.17536491
v -0.26015287 -0.35807007 0.16699642
v -0.13886493 -0.42738304 0.17536491
v -0.13677043 -0.42093654 0.16699642
v 0.00000000 -0.44937703 0.17536491
v 0.00000000 -0.44259853 0.16699642
v 0.13886493 -0.42738304 0.17536491
v 0.13677043 -0.42093654 0.16699642
v 0.26413687 -0.36355357 0.17536491
v 0.26015287 -0.35807007 0.16699642
v 0.36355332 -0.26413712 0.17536491
v 0.35806982 -0.26015312 0.16699642
v 0.42738229 -0.13886518 0.17536491
v 0.42093579 -0.13677068 0.16699642
v 0.44937678 -0.00000025 0.17536491
v 0.44259828 -0.00000025 0.16699642
v 0.00000000 -0.49288300 0.16678942
v 0.15230892 -0.46875952 0.16678942
v 0.15450842 -0.47552851 0.17536491
v 0.00000000 -0.50000000 0.17536491
v -0.15230892 -0.46875952 0.16678942
v -0.15450842 -0.47552851 0.17536491
v -0.28970886 -0.39875055 0.16678942
v -0.29389235 -0.40450855 0.17536491
v -0.39875030 -0.28970911 0.16678942
v -0.40450830 -0.29389260 0.17536491
v -0.46875927 -0.15230917 0.16678942
v -0.47552826 -0.15450867 0.17536491
v -0.49288275 -0.00000025 0.16678942
v -0.49999975 -0.00000025 0.17536491
v -0.46875927 0.15230867 0.16678942
v -0.47552826 0.15450817 0.17536491
v -0.39875030 0.28970911 0.16678942
v -0.40450830 0.29389260 0.17536491
v -0.28970936 0.39875005 0.16678942
v -0.29389235 0.40450805 0.17536491
v -0.15230892 0.46875902 0.16678942
v -0.15450842 0.47552801 0.17536491
v 0.00000000 0.49288250 0.16678942
v 0.00000000 0.50000000 0.17536491
v 0.15230892 0.46875902 0.16678942
v 0.00000000 0.49288250 0.16678942
v 0.00000000 0.50000000 0.17536491
v 0.15450842 0.47552801 0.17536491
v 0.28970936 0.39875055 0.16678942
v 0.29389285 0.40450855 0.17536491
v 0.39875030 0.28970911 0.16678942
v 0.40450880 0.29389260 0.17536491
v 0.46875927 0.15230867 0.16678942
v 0.47552826 0.15450817 0.17536491
v 0.49288225 -0.00000025 0.16678942
v 0.49999975 -0.00000025 0.17536491
v 0.46875877 -0.15230917 0.16678942
v 0.47552826 -0.15450867 0.17536491
v 0.39875030 -0.28970911 0.16678942
v 0.40450830 -0.29389260 0.17536491
v 0.28970886 -0.39875055 0.16678942
v 0.29389235 -0.40450855 0.17536491
v -0.26651937 -0.36683257 0.17536491
v -0.36683232 -0.26651962 0.17536491
v -0.43123728 -0.14011768 0.17536491
v -0.45342977 -0.00000025 0.17536491
v -0.43123728 0.14011718 0.17536491
v -0.36683232 0.26651912 0.17536491
v -0.26651937 0.36683207 0.17536491
v -0.14011743 0.43123703 0.17536491
v 0.00000000 0.45342952 0.17536491
v 0.00000000 0.45342952 0.17536491
v 0.14011743 0.43123703 0.17536491
v 0.26651937 0.36683257 0.17536491
v 0.36683232 0.26651912 0.17536491
v 0.43123728 0.14011718 0.17536491
v 0.45342977 -0.00000025 0.17536491
v 0.43123728 -0.14011768 0.17536491
v 0.36683232 -0.26651962 0.17536491
v 0.26651937 -0.36683257 0.17536491
v 0.14011743 -0.43123753 0.17536491
v 0.00000000 -0.45343002 0.17536491
v -0.14011743 -0.43123753 0.17536491
v -0.26413687 -0.36355357 0.17536491
v -0.36355332 -0.26413712 0.17536491
v -0.42738279 -0.13886518 0.17536491
v -0.44937678 -0.00000025 0.17536491
v -0.42738279 0.13886468 0.17536491
v -0.36355332 0.26413662 0.17536491
v -0.26413687 0.36355307 0.17536491
v -0.13886493 0.42738254 0.17536491
v 0.00000000 0.44937653 0.17536491
v 0.00000000 0.44937653 0.17536491
v 0.13886493 0.42738254 0.17536491
v 0.26413687 0.36355357 0.17536491
v 0.36355332 0.26413712 0.17536491
v 0.42738279 0.13886468 0.17536491
v 0.44937678 -0.00000025 0.17536491
v 0.42738229 -0.13886518 0.17536491
v 0.36355332 -0.26413712 0.17536491
v 0.26413687 -0.36355357 0.17536491
v 0.13886493 -0.42738304 0.17536491
v 0.00000000 -0.44937703 0.17536491
v -0.13886493 -0.42738304 0.17536491
vn 0.00000000 0.00000000 1.00000000
vn 0.00000000 0.00000000 1.00000000
vn 0.00000000 0.00000000 1.00000000
vn 0.00000000 0.00000000 1.00000000
vn 0.00000000 0.00000000 1.00000000
vn 0.00000000 0.00000000 1.00000000
vn 0.00000000 0.00000000 1.00000000
vn 0.00000000 0.00000000 1.00000000
vn 0.00000000 0.00000000 1.00000000
vn 0.00000000 0.00000000 1.00000000
vn 0.00000000 0.00000000 1.00000000
vn 0.00000000 0.00000000 1.00000000
vn 0.00000000 0.00000000 1.00000000
vn 0.00000000 0.00000000 1.00000000
vn 0.00000000 0.00000000 1.00000000
vn 0.00000000 0.00000000 1.00000000
vn 0.00000000 0.00000000 1.00000000
vn 0.00000000 0.00000000 1.00000000
vn 0.00000000 0.00000000 1.00000000
vn 0.00000000 0.00000000 1.00000000
vn 0.00000000 0.00000000 1.00000000
vn 0.00000000 0.00000000 1.00000000
vn 0.00000000 0.00000000 1.00000000
vn 0.00000000 0.00000000 1.00000000
vn 0.00000000 0.00000000 1.00000000
vn 0.00000000 0.00000000 1.00000000
vn 0.00000000 0.00000000 1.00000000
vn 0.00000000 0.00000000 1.00000000
vn 0.00000000 0.00000000 1.00000000
vn 0.00000000 0.00000000 1.00000000
vn 0.00000000 0.00000000 1.00000000
vn 0.00000000 0.00000000 1.00000000
vn 0.00000000 0.00000000 1.00000000
vn 0.00000000 0.00000000 1.00000000
vn 0.00000000 0.00000000 1.00000000
vn 0.00000000 0.00000000 1.00000000
vn 0.00000000 0.00000000 1.00000000
vn 0.00000000 0.00000000 1.00000000
vn 0.00000000 0.00000000 1.00000000
vn 0.00000000 0.00000000 1.00000000
vn 0.00000000 0.00000000 1.00000000
vn 0.00000000 0.00000000 1.00000000
vn -0.73903201 -0.24011040 0.62942726
vn -0.62867665 -0.45678303 0.62937662
vn -0.62867665 -0.45678303 0.62937662
vn -0.73903201 -0.24011040 0.62942726
vn -0.45678303 -0.62867665 0.62937662
vn -0.45678303 -0.62867665 0.62937662
vn -0.24011040 -0.73903201 0.62942726
vn -0.24011040 -0.73903201 0.62942726
vn 0.00000000 -0.77708882 0.62939095
vn 0.00000000 -0.77708882 0.62939095
vn 0.00000000 -0.77708882 0.62939095
vn 0.24011040 -0.73903201 0.62942726
vn 0.24011040 -0.73903201 0.62942726
vn 0.00000000 -0.77708882 0.62939095
vn 0.45678303 -0.62867665 0.62937662
vn 0.45678303 -0.62867665 0.62937662
vn 0.62867665 -0.45678303 0.62937662
vn 0.62867665 -0.45678303 0.62937662
vn 0.73903201 -0.24011040 0.62942726
vn 0.73903201 -0.24011040 0.62942726
vn 0.77708882 0.00000000 0.62939095
vn 0.77708882 0.00000000 0.62939095
vn 0.73903201 0.24011040 0.62942726
vn 0.73903201 0.24011040 0.62942726
vn 0.62867665 0.45678303 0.62937662
vn 0.62867665 0.45678303 0.62937662
vn 0.45678303 0.62867665 0.62937662
vn 0.45678303 0.62867665 0.62937662
vn 0.24011040 0.73903201 0.62942726
vn 0.24011040 0.73903201 0.62942726
vn 0.00000000 0.77708882 0.62939095
vn 0.00000000 0.77708882 0.62939095
vn -0.24011040 0.73903201 0.62942726
vn -0.24011040 0.73903201 0.62942726
vn -0.45678303 0.62867665 0.62937662
vn -0.45678303 0.62867665 0.62937662
vn -0.62867665 0.45678303 0.62937662
vn -0.62867665 0.45678303 0.62937662
vn -0.73903201 0.24011040 0.62942726
vn -0.73903201 0.24011040 0.62942726
vn -0.77708882 0.00000000 0.62939095
vn -0.77708882 0.00000000 0.62939095
vn 0.00000000 -0.76952301 -0.63861909
vn 0.23781308 -0.73184024 -0.63863511
vn 0.23781308 -0.73184024 -0.63863511
vn 0.00000000 -0.76952301 -0.63861909
vn -0.23781308 -0.73184024 -0.63863511
vn -0.23781308 -0.73184024 -0.63863511
vn -0.45232454 -0.62253377 -0.63863465
vn -0.45232454 -0.62253377 -0.63863465
vn -0.62253377 -0.45232454 -0.63863465
vn -0.62253377 -0.45232454 -0.63863465
vn -0.73184024 -0.23781308 -0.63863511
vn -0.73184024 -0.23781308 -0.63863511
vn -0.76952301 0.00000000 -0.63861909
vn -0.76952301 0.00000000 -0.63861909
vn -0.73184024 0.23781308 -0.63863511
vn -0.73184024 0.23781308 -0.63863511
vn -0.62253377 0.45232454 -0.63863465
vn -0.62253377 0.45232454 -0.63863465
vn -0.45232454 0.62253377 -0.63863465
vn -0.45232454 0.62253377 -0.63863465
vn -0.23781308 0.73184024 -0.63863511
vn -0.23781308 0.73184024 -0.63863511
vn 0.00000000 0.76952301 -0.63861909
vn 0.00000000 0.76952301 -0.63861909
vn 0.23781308 0.73184024 -0.63863511
vn 0.00000000 0.76952301 -0.63861909
vn 0.00000000 0.76952301 -0.63861909
vn 0.23781308 0.73184024 -0.63863511
vn 0.45232454 0.62253377 -0.63863465
vn 0.45232454 0.62253377 -0.63863465
vn 0.62253377 0.45232454 -0.63863465
vn 0.62253377 0.45232454 -0.63863465
vn 0.73184024 0.23781308 -0.63863511
vn 0.73184024 0.23781308 -0.63863511
vn 0.76952301 0.00000000 -0.63861909
vn 0.76952301 0.00000000 -0.63861909
vn 0.73184024 -0.23781308 -0.63863511
vn 0.73184024 -0.23781308 -0.63863511
vn 0.62253377 -0.45232454 -0.63863465
vn 0.62253377 -0.45232454 -0.63863465
vn 0.45232454 -0.62253377 -0.63863465
vn 0.45232454 -0.62253377 -0.63863465
vn 0.00000000 0.00000000 1.00000000
vn 0.00000000 0.00000000 1.00000000
vn 0.00000000 0.00000000 1.00000000
vn 0.00000000 0.00000000 1.00000000
vn 0.00000000 0.00000000 1.00000000
vn 0.00000000 0.00000000 1.00000000
vn 0.00000000 0.00000000 1.00000000
vn 0.00000000 0.00000000 1.00000000
vn 0.00000000 0.00000000 1.00000000
vn 0.00000000 0.00000000 1.00000000
vn 0.00000000 0.00000000 1.00000000
vn 0.00000000 0.00000000 1.00000000
vn 0.00000000 0.00000000 1.00000000
vn 0.00000000 0.00000000 1.00000000
vn 0.00000000 0.00000000 1.00000000
vn 0.00000000 0.00000000 1.00000000
vn 0.00000000 0.00000000 1.00000000
vn 0.00000000 0.00000000 1.00000000
vn 0.00000000 0.00000000 1.00000000
vn 0.00000000 0.00000000 1.00000000
vn 0.00000000 0.00000000 1.00000000
vn 0.00000000 0.00000000 1.00000000
vn 0.00000000 0.00000000 1.00000000
vn 0.00000000 0.00000000 1.00000000
vn 0.00000000 0.00000000 1.00000000
vn 0.00000000 0.00000000 1.00000000
vn 0.00000000 0.00000000 1.00000000
vn 0.00000000 0.00000000 1.00000000
vn 0.00000000 0.00000000 1.00000000
vn 0.00000000 0.00000000 1.00000000
vn 0.00000000 0.00000000 1.00000000
vn 0.00000000 0.00000000 1.00000000
vn 0.00000000 0.00000000 1.00000000
vn 0.00000000 0.00000000 1.00000000
vn 0.00000000 0.00000000 1.00000000
vn 0.00000000 0.00000000 1.00000000
vn 0.00000000 0.00000000 1.00000000
vn 0.00000000 0.00000000 1.00000000
vn 0.00000000 0.00000000 1.00000000
vn 0.00000000 0.00000000 1.00000000
vn 0.00000000 0.00000000 1.00000000
vn 0.00000000 0.00000000 1.00000000
vt 0.80001600 0.33660900
vt 0.85001600 0.33660900
vt 0.85001600 0.33554300
vt 0.80001600 0.33554300
vt 0.90001600 0.33660900
vt 0.90001600 0.33554300
vt 0.95001600 0.33660900
vt 0.95001600 0.33554300
vt 1.00001600 0.33660900
vt 1.00001600 0.33554300
vt 0.00001600 0.33660900
vt 0.05001600 0.33660900
vt 0.05001600 0.33554300
vt 0.00001600 0.33554300
vt 0.10001600 0.33660900
vt 0.10001600 0.33554300
vt 0.15001600 0.33660900
vt 0.15001600 0.33554300
vt 0.20001600 0.33660900
vt 0.20001600 0.33554300
vt 0.25001600 0.33660900
vt 0.25001600 0.33554300
vt 0.30001600 0.33660900
vt 0.30001600 0.33554300
vt 0.35001600 0.33660900
vt 0.35001600 0.33554300
vt 0.40001600 0.33660900
vt 0.40001600 0.33554300
vt 0.45001600 0.33660900
vt 0.45001600 0.33554300
vt 0.50001600 0.33660900
vt 0.50001600 0.33554300
vt 0.55001600 0.33660900
vt 0.55001600 0.33554300
vt 0.60001600 0.33660900
vt 0.60001600 0.33554300
vt 0.65001600 0.33660900
vt 0.65001600 0.33554300
vt 0.70001600 0.33660900
vt 0.70001600 0.33554300
vt 0.75001600 0.33660900
vt 0.75001600 0.33554300
vt 0.80001600 0.32555100
vt 0.85001600 0.32555100
vt 0.85001600 0.32913800
vt 0.80001600 0.32913800
vt 0.90001600 0.32555100
vt 0.90001600 0.32913800
vt 0.95001600 0.32555100
vt 0.95001600 0.32913800
vt 1.00001600 0.32555100
vt 1.00001600 0.32913800
vt 0.00001600 0.32555100
vt 0.05001600 0.32555100
vt 0.05001600 0.32913800
vt 0.00001600 0.32913800
vt 0.10001600 0.32555100
vt 0.10001600 0.32913800
vt 0.15001600 0.32555100
vt 0.15001600 0.32913800
vt 0.20001600 0.32555100
vt 0.20001600 0.32913800
vt 0.25001600 0.32555100
vt 0.25001600 0.32913800
vt 0.30001600 0.32555100
vt 0.30001600 0.32913800
vt 0.35001600 0.32555100
vt 0.35001600 0.32913800
vt 0.40001600 0.32555100
vt 0.40001600 0.32913800
vt 0.45001600 0.32555100
vt 0.45001600 0.32913800
vt 0.50001600 0.32555100
vt 0.50001600 0.32913800
vt 0.55001600 0.32555100
vt 0.55001600 0.32913800
vt 0.60001600 0.32555100
vt 0.60001600 0.32913800
vt 0.65001600 0.32555100
vt 0.65001600 0.32913800
vt 0.70001600 0.32555100
vt 0.70001600 0.32913800
vt 0.75001600 0.32555100
vt 0.75001600 0.32913800
vt 0.50001600 0.34011800
vt 0.55001600 0.34011800
vt 0.55001600 0.33660900
vt 0.50001600 0.33660900
vt 0.45001600 0.34011800
vt 0.45001600 0.33660900
vt 0.40001600 0.34011800
vt 0.40001600 0.33660900
vt 0.35001600 0.34011800
vt 0.35001600 0.33660900
vt 0.30001600 0.34011800
vt 0.30001600 0.33660900
vt 0.25001600 0.34011800
vt 0.25001600 0.33660900
vt 0.20001600 0.34011800
vt 0.20001600 0.33660900
vt 0.15001600 0.34011800
vt 0.15001600 0.33660900
vt 0.10001600 0.34011800
vt 0.10001600 0.33660900
vt 0.05001600 0.34011800
vt 0.05001600 0.33660900
vt 0.00001600 0.34011800
vt 0.00001600 0.33660900
vt 0.95001600 0.34011800
vt 1.00001600 0.34011800
vt 1.00001600 0.33660900
vt 0.95001600 0.33660900
vt 0.90001600 0.34011800
vt 0.90001600 0.33660900
vt 0.85001600 0.34011800
vt 0.85001600 0.33660900
vt 0.80001600 0.34011800
vt 0.80001600 0.33660900
vt 0.75001600 0.34011800
vt 0.75001600 0.33660900
vt 0.70001600 0.34011800
vt 0.70001600 0.33660900
vt 0.65001600 0.34011800
vt 0.65001600 0.33660900
vt 0.60001600 0.34011800
vt 0.60001600 0.33660900
vt 0.40001600 0.32651500
vt 0.35001600 0.32651500
vt 0.30001600 0.32651500
vt 0.25001600 0.32651500
vt 0.20001600 0.32651500
vt 0.15001600 0.32651500
vt 0.10001600 0.32651500
vt 0.05001600 0.32651500
vt 0.00001600 0.32651500
vt 1.00001600 0.32651500
vt 0.95001600 0.32651500
vt 0.90001600 0.32651500
vt 0.85001600 0.32651500
vt 0.80001600 0.32651500
vt 0.75001600 0.32651500
vt 0.70001600 0.32651500
vt 0.65001600 0.32651500
vt 0.60001600 0.32651500
vt 0.55001600 0.32651500
vt 0.50001600 0.32651500
vt 0.45001600 0.32651500
vt 0.40001600 0.32555100
vt 0.35001600 0.32555100
vt 0.30001600 0.32555100
vt 0.25001600 0.32555100
vt 0.20001600 0.32555100
vt 0.15001600 0.32555100
vt 0.10001600 0.32555100
vt 0.05001600 0.32555100
vt 0.00001600 0.32555100
vt 1.00001600 0.32555100
vt 0.95001600 0.32555100
vt 0.90001600 0.32555100
vt 0.85001600 0.32555100
vt 0.80001600 0.32555100
vt 0.75001600 0.32555100
vt 0.70001600 0.32555100
vt 0.65001600 0.32555100
vt 0.60001600 0.32555100
vt 0.55001600 0.32555100
vt 0.50001600 0.32555100
vt 0.45001600 0.32555100
f 1/1/1 2/2/2 3/3/3
f 1/1/1 3/3/3 4/4/4
f 2/2/2 5/5/5 6/6/6
f 2/2/2 6/6/6 3/3/3
f 5/5/5 7/7/7 8/8/8
f 5/5/5 8/8/8 6/6/6
f 7/7/7 9/9/9 10/10/10
f 7/7/7 10/10/10 8/8/8
f 11/11/11 12/12/12 13/13/13
f 11/11/11 13/13/13 14/14/14
f 12/12/12 15/15/15 16/16/16
f 12/12/12 16/16/16 13/13/13
f 15/15/15 17/17/17 18/18/18
f 15/15/15 18/18/18 16/16/16
f 17/17/17 19/19/19 20/20/20
f 17/17/17 20/20/20 18/18/18
f 19/19/19 21/21/21 22/22/22
f 19/19/19 22/22/22 20/20/20
f 21/21/21 23/23/23 24/24/24
f 21/21/21 24/24/24 22/22/22
f 23/23/23 25/25/25 26/26/26
f 23/23/23 26/26/26 24/24/24
f 25/25/25 27/27/27 28/28/28
f 25/25/25 28/28/28 26/26/26
f 27/27/27 29/29/29 30/30/30
f 27/27/27 30/30/30 28/28/28
f 29/29/29 31/31/31 32/32/32
f 29/29/29 32/32/32 30/30/30
f 31/31/31 33/33/33 34/34/34
f 31/31/31 34/34/34 32/32/32
f 33/33/33 35/35/35 36/36/36
f 33/33/33 36/36/36 34/34/34
f 35/35/35 37/37/37 38/38/38
f 35/35/35 38/38/38 36/36/36
f 37/37/37 39/39/39 40/40/40
f 37/37/37 40/40/40 38/38/38
f 39/39/39 41/41/41 42/42/42
f 39/39/39 42/42/42 40/40/40
f 41/41/41 1/1/1 4/4/4
f 41/41/41 4/4/4 42/42/42
f 26/26/26 28/28/28 127/127/127
f 26/26/26 127/127/127 128/128/128
f 24/24/24 26/26/26 128/128/128
f 24/24/24 128/128/128 129/129/129
f 22/22/22 24/24/24 129/129/129
f 22/22/22 129/129/129 130/130/130
f 20/20/20 22/22/22 130/130/130
f 20/20/20 130/130/130 131/131/131
f 18/18/18 20/20/20 131/131/131
f 18/18/18 131/131/131 132/132/132
f 16/16/16 18/18/18 132/132/132
f 16/16/16 132/132/132 133/133/133
f 13/13/13 16/16/16 133/133/133
f 13/13/13 133/133/133 134/134/134
f 14/14/14 13/13/13 134/134/134
f 14/14/14 134/134/134 135/135/135
f 8/8/8 10/10/10 136/136/136
f 8/8/8 136/136/136 137/137/137
f 6/6/6 8/8/8 137/137/137
f 6/6/6 137/137/137 138/138/138
f 3/3/3 6/6/6 138/138/138
f 3/3/3 138/138/138 139/139/139
f 4/4/4 3/3/3 139/139/139
f 4/4/4 139/139/139 140/140/140
f 42/42/42 4/4/4 140/140/140
f 42/42/42 140/140/140 141/141/141
f 40/40/40 42/42/42 141/141/141
f 40/40/40 141/141/141 142/142/142
f 38/38/38 40/40/40 142/142/142
f 38/38/38 142/142/142 143/143/143
f 36/36/36 38/38/38 143/143/143
f 36/36/36 143/143/143 144/144/144
f 34/34/34 36/36/36 144/144/144
f 34/34/34 144/144/144 145/145/145
f 32/32/32 34/34/34 145/145/145
f 32/32/32 145/145/145 146/146/146
f 30/30/30 32/32/32 146/146/146
f 30/30/30 146/146/146 147/147/147
f 28/28/28 30/30/30 147/147/147
f 28/28/28 147/147/147 127/127/127
f 128/128/128 127/127/127 148/148/148
f 128/128/128 148/148/148 149/149/149
f 129/129/129 128/128/128 149/149/149
f 129/129/129 149/149/149 150/150/150
f 130/130/130 129/129/129 150/150/150
f 130/130/130 150/150/150 151/151/151
f 131/131/131 130/130/130 151/151/151
f 131/131/131 151/151/151 152/152/152
f 132/132/132 131/131/131 152/152/152
f 132/132/132 152/152/152 153/153/153
f 133/133/133 132/132/132 153/153/153
f 133/133/133 153/153/153 154/154/154
f 134/134/134 133/133/133 154/154/154
f 134/134/134 154/154/154 155/155/155
f 135/135/135 134/134/134 155/155/155
f 135/135/135 155/155/155 156/156/156
f 137/137/137 136/136/136 157/157/157
f 137/137/137 157/157/157 158/158/158
f 138/138/138 137/137/137 158/158/158
f 138/138/138 158/158/158 159/159/159
f 139/139/139 138/138/138 159/159/159
f 139/139/139 159/159/159 160/160/160
f 140/140/140 139/139/139 160/160/160
f 140/140/140 160/160/160 161/161/161
f 141/141/141 140/140/140 161/161/161
f 141/141/141 161/161/161 162/162/162
f 142/142/142 141/141/141 162/162/162
f 142/142/142 162/162/162 163/163/163
f 143/143/143 142/142/142 163/163/163
f 143/143/143 163/163/163 164/164/164
f 144/144/144 143/143/143 164/164/164
f 144/144/144 164/164/164 165/165/165
f 145/145/145 144/144/144 165/165/165
f 145/145/145 165/165/165 166/166/166
f 146/146/146 145/145/145 166/166/166
f 146/146/146 166/166/166 167/167/167
f 147/147/147 146/146/146 167/167/167
f 147/147/147 167/167/167 168/168/168
f 127/127/127 147/147/147 168/168/168
f 127/127/127 168/168/168 148/148/148
f 43/43/43 44/44/44 45/45/45
f 43/43/43 45/45/45 46/46/46
f 44/44/44 47/47/47 48/48/48
f 44/44/44 48/48/48 45/45/45
f 47/47/47 49/49/49 50/50/50
f 47/47/47 50/50/50 48/48/48
f 49/49/49 51/51/51 52/52/52
f 49/49/49 52/52/52 50/50/50
f 53/53/53 54/54/54 55/55/55
f 53/53/53 55/55/55 56/56/56
f 54/54/54 57/57/57 58/58/58
f 54/54/54 58/58/58 55/55/55
f 57/57/57 59/59/59 60/60/60
f 57/57/57 60/60/60 58/58/58
f 59/59/59 61/61/61 62/62/62
f 59/59/59 62/62/62 60/60/60
f 61/61/61 63/63/63 64/64/64
f 61/61/61 64/64/64 62/62/62
f 63/63/63 65/65/65 66/66/66
f 63/63/63 66/66/66 64/64/64
f 65/65/65 67/67/67 68/68/68
f 65/65/65 68/68/68 66/66/66
f 67/67/67 69/69/69 70/70/70
f 67/67/67 70/70/70 68/68/68
f 69/69/69 71/71/71 72/72/72
f 69/69/69 72/72/72 70/70/70
f 71/71/71 73/73/73 74/74/74
f 71/71/71 74/74/74 72/72/72
f 73/73/73 75/75/75 76/76/76
f 73/73/73 76/76/76 74/74/74
f 75/75/75 77/77/77 78/78/78
f 75/75/75 78/78/78 76/76/76
f 77/77/77 79/79/79 80/80/80
f 77/77/77 80/80/80 78/78/78
f 79/79/79 81/81/81 82/82/82
f 79/79/79 82/82/82 80/80/80
f 81/81/81 83/83/83 84/84/84
f 81/81/81 84/84/84 82/82/82
f 83/83/83 43/43/43 46/46/46
f 83/83/83 46/46/46 84/84/84
f 85/85/85 86/86/86 87/87/87
f 85/85/85 87/87/87 88/88/88
f 89/89/89 85/85/85 88/88/88
f 89/89/89 88/88/88 90/90/90
f 91/91/91 89/89/89 90/90/90
f 91/91/91 90/90/90 92/92/92
f 93/93/93 91/91/91 92/92/92
f 93/93/93 92/92/92 94/94/94
f 95/95/95 93/93/93 94/94/94
f 95/95/95 94/94/94 96/96/96
f 97/97/97 95/95/95 96/96/96
f 97/97/97 96/96/96 98/98/98
f 99/99/99 97/97/97 98/98/98
f 99/99/99 98/98/98 100/100/100
f 101/101/101 99/99/99 100/100/100
f 101/101/101 100/100/100 102/102/102
f 103/103/103 101/101/101 102/102/102
f 103/103/103 102/102/102 104/104/104
f 105/105/105 103/103/103 104/104/104
f 105/105/105 104/104/104 106/106/106
f 107/107/107 105/105/105 106/106/106
f 107/107/107 106/106/106 108/108/108
f 109/109/109 110/110/110 111/111/111
f 109/109/109 111/111/111 112/112/112
f 113/113/113 109/109/109 112/112/112
f 113/113/113 112/112/112 114/114/114
f 115/115/115 113/113/113 114/114/114
f 115/115/115 114/114/114 116/116/116
f 117/117/117 115/115/115 116/116/116
f 117/117/117 116/116/116 118/118/118
f 119/119/119 117/117/117 118/118/118
f 119/119/119 118/118/118 120/120/120
f 121/121/121 119/119/119 120/120/120
f 121/121/121 120/120/120 122/122/122
f 123/123/123 121/121/121 122/122/122
f 123/123/123 122/122/122 124/124/124
f 125/125/125 123/123/123 124/124/124
f 125/125/125 124/124/124 126/126/126
f 86/86/86 125/125/125 126/126/126
f 86/86/86 126/126/126 87/87/87